#N canvas 57 23 1167 810 10;
#X obj 113 443 vsl 15 128 0 127 0 0 empty empty R 0 -9 0 10 -262144
-1 -1 12700 1;
#X obj 192 443 vsl 15 128 0 127 0 0 empty empty G 0 -9 0 10 -262144
-1 -1 2381 1;
#X obj 270 443 vsl 15 128 0 127 0 0 empty empty B 0 -9 0 10 -262144
-1 -1 0 1;
#X obj 359 445 vsl 15 128 0 127 0 0 empty empty Intensity 0 -9 0 10
-262144 -1 -1 0 1;
#X obj 186 705 ctlout;
#X msg 113 579 \$1 1;
#X msg 359 581 \$1 7;
#X msg 192 580 \$1 2;
#X msg 270 579 \$1 3;
#X obj 113 332 unpack f f f;
#X obj 113 364 / 2;
#X obj 147 365 / 2;
#X obj 182 365 / 2;
#X text 210 361 divide value by 2 to scale to midi range (0-127);
#X floatatom 76 581 5 0 0 0 - - -, f 5;
#X floatatom 155 581 5 0 0 0 - - -, f 5;
#X floatatom 233 581 5 0 0 0 - - -, f 5;
#X text 193 332 unpacks a list into 3 numbers;
#X obj 534 388 line;
#X obj 593 672 hsv2rgb;
#X obj 596 569 hsl 128 15 0 1 0 0 empty empty empty -2 -8 0 10 -262144
-1 -1 395 1;
#X text 643 674 scales from HSV colorspace to RGB;
#X obj 612 591 hsl 128 15 0 1 0 0 empty empty empty -2 -8 0 10 -262144
-1 -1 0 1;
#X obj 609 614 t b f;
#X obj 593 700 send rgb_from_hsv;
#X obj 113 306 receive rgb_from_hsv;
#X text 708 702 sends RGB values to the RGB controls;
#X msg 551 192 8;
#X msg 580 192 190;
#X msg 610 192 49;
#X msg 640 192 122;
#X msg 670 192 140;
#X msg 706 193 254;
#X msg 739 192 191;
#X msg 771 192 31;
#X msg 801 192 219;
#X msg 832 192 86;
#X msg 865 192 243;
#X msg 895 192 167;
#X obj 638 141 select 0 1 2 3 4 5 6 7 8 9 10 11;
#X obj 638 117 % 12;
#X obj 638 60 notein;
#X obj 638 96 stripnote;
#X obj 542 99 pack f f;
#X obj 542 125 route 0;
#X msg 534 347 127 20;
#X msg 575 370 0 500;
#X obj 715 261 send color;
#X obj 593 645 pack f 1 1;
#X obj 593 521 r color;
#X obj 593 544 / 257;
#X text 737 566 hue;
#X text 751 592 saturation;
#X text 725 541 HSV Control;
#X text 578 347 attack envelope (second term is attack time in ms)
;
#X text 617 372 decay envelope (second term is decay time in ms);
#X text 927 192 change these number to change;
#X text 926 207 pitch-colors;
#X text 679 117 cycles through 12 pitch - color associations;
#X text 92 52 This patch converts incoming midi notes into DMX light
control for a MIDI2DMX board.;
#X text 95 109 midi notes are mapped to Scriabin's colors https://en.wikipedia.org/wiki/Clavier_%C3%A0_lumi%C3%A8res
;
#X text 96 165 the result is sent out on midi cc's that correspond
with common DMX channels;
#X connect 0 0 5 0;
#X connect 0 0 14 0;
#X connect 1 0 7 0;
#X connect 1 0 15 0;
#X connect 2 0 8 0;
#X connect 2 0 16 0;
#X connect 3 0 6 0;
#X connect 5 0 4 0;
#X connect 6 0 4 0;
#X connect 7 0 4 0;
#X connect 8 0 4 0;
#X connect 9 0 10 0;
#X connect 9 1 11 0;
#X connect 9 2 12 0;
#X connect 10 0 0 0;
#X connect 11 0 1 0;
#X connect 12 0 2 0;
#X connect 18 0 3 0;
#X connect 19 0 24 0;
#X connect 20 0 48 0;
#X connect 22 0 23 0;
#X connect 23 0 20 0;
#X connect 23 1 48 1;
#X connect 25 0 9 0;
#X connect 27 0 47 0;
#X connect 28 0 47 0;
#X connect 29 0 47 0;
#X connect 30 0 47 0;
#X connect 31 0 47 0;
#X connect 32 0 47 0;
#X connect 33 0 47 0;
#X connect 34 0 47 0;
#X connect 35 0 47 0;
#X connect 36 0 47 0;
#X connect 37 0 47 0;
#X connect 38 0 47 0;
#X connect 39 0 27 0;
#X connect 39 1 28 0;
#X connect 39 2 29 0;
#X connect 39 3 30 0;
#X connect 39 4 31 0;
#X connect 39 5 32 0;
#X connect 39 6 33 0;
#X connect 39 7 34 0;
#X connect 39 8 35 0;
#X connect 39 9 36 0;
#X connect 39 10 37 0;
#X connect 39 11 38 0;
#X connect 40 0 39 0;
#X connect 41 0 42 0;
#X connect 41 0 43 1;
#X connect 41 1 43 0;
#X connect 41 1 42 1;
#X connect 42 0 40 0;
#X connect 43 0 44 0;
#X connect 44 0 46 0;
#X connect 44 1 45 0;
#X connect 45 0 18 0;
#X connect 46 0 18 0;
#X connect 48 0 19 0;
#X connect 49 0 50 0;
#X connect 50 0 20 0;
