#N canvas 466 115 1167 810 10;
#X obj 113 443 vsl 15 128 0 127 0 0 empty empty R 0 -9 0 10 -262144
-1 -1 12700 1;
#X obj 192 443 vsl 15 128 0 127 0 0 empty empty G 0 -9 0 10 -262144
-1 -1 2381 1;
#X obj 270 443 vsl 15 128 0 127 0 0 empty empty B 0 -9 0 10 -262144
-1 -1 0 1;
#X obj 359 445 vsl 15 128 0 127 0 0 empty empty Intensity 0 -9 0 10
-262144 -1 -1 3834 1;
#X obj 186 705 ctlout;
#X msg 113 579 \$1 1;
#X msg 359 581 \$1 7;
#X msg 192 580 \$1 2;
#X msg 270 579 \$1 3;
#X obj 113 332 unpack f f f;
#X obj 113 364 / 2;
#X obj 147 365 / 2;
#X obj 182 365 / 2;
#X text 210 361 divide value by 2 to scale to midi range (0-127);
#X floatatom 76 581 5 0 0 0 - - -, f 5;
#X floatatom 155 581 5 0 0 0 - - -, f 5;
#X floatatom 233 581 5 0 0 0 - - -, f 5;
#X text 193 332 unpacks a list into 3 numbers;
#X obj 534 388 line;
#X obj 593 672 hsv2rgb;
#X obj 596 569 hsl 128 15 0 1 0 0 empty empty empty -2 -8 0 10 -262144
-1 -1 0 1;
#X text 643 674 scales from HSV colorspace to RGB;
#X obj 612 591 hsl 128 15 0 1 0 0 empty empty empty -2 -8 0 10 -262144
-1 -1 12700 1;
#X obj 609 614 t b f;
#X obj 593 700 send rgb_from_hsv;
#X obj 113 306 receive rgb_from_hsv;
#X text 708 702 sends RGB values to the RGB controls;
#X obj 593 645 pack f 1 1;
#X text 737 566 hue;
#X text 751 592 saturation;
#X obj 593 544 / 128;
#X obj 533 334 receive amplitude;
#X msg 534 362 \$1 20;
#X msg 619 240 8;
#X msg 648 240 190;
#X msg 678 240 49;
#X msg 708 240 122;
#X msg 738 240 140;
#X msg 774 241 254;
#X msg 807 240 191;
#X msg 839 240 31;
#X msg 869 240 219;
#X msg 900 240 86;
#X msg 933 240 243;
#X msg 963 240 167;
#X obj 706 189 select 0 1 2 3 4 5 6 7 8 9 10 11;
#X obj 706 165 % 12;
#X obj 783 309 send color;
#X text 995 240 change these number to change;
#X text 994 255 pitch-colors;
#X text 747 165 cycles through 12 pitch - color associations;
#X obj 707 70 sigmund~;
#X obj 707 39 adc~;
#X obj 707 100 clip 0 127;
#X floatatom 649 126 5 0 0 0 - - -, f 5;
#X obj 792 69 clip 40 100;
#X obj 794 137 send amplitude;
#X text 130 140 analyzed amplitude is mapped to brightness;
#X obj 793 90 - 40;
#X obj 794 114 * 2;
#X text 839 91 these amplitude scaling numbers may need to change depending
on sound source;
#X text 602 144 incoming pitch;
#X text 601 159 (midi note #);
#X text 129 100 analyzed pitch is mapped to Scriabin's colors https://en.wikipedia.org/wiki/Clavier_%C3%A0_lumi%C3%A8res
;
#X text 129 74 incoming audio is analyzed by sigmund~;
#X text 129 169 the result is sent out on midi cc's that correspond
with common DMX channels;
#X text 132 33 This patch converts incoming audio into DMX light control
for a MIDI2DMX board.;
#X connect 0 0 5 0;
#X connect 0 0 14 0;
#X connect 1 0 7 0;
#X connect 1 0 15 0;
#X connect 2 0 8 0;
#X connect 2 0 16 0;
#X connect 3 0 6 0;
#X connect 5 0 4 0;
#X connect 6 0 4 0;
#X connect 7 0 4 0;
#X connect 8 0 4 0;
#X connect 9 0 10 0;
#X connect 9 1 11 0;
#X connect 9 2 12 0;
#X connect 10 0 0 0;
#X connect 11 0 1 0;
#X connect 12 0 2 0;
#X connect 18 0 3 0;
#X connect 19 0 24 0;
#X connect 20 0 27 0;
#X connect 22 0 23 0;
#X connect 23 0 20 0;
#X connect 23 1 27 1;
#X connect 25 0 9 0;
#X connect 27 0 19 0;
#X connect 30 0 20 0;
#X connect 31 0 32 0;
#X connect 32 0 18 0;
#X connect 33 0 47 0;
#X connect 34 0 47 0;
#X connect 35 0 47 0;
#X connect 36 0 47 0;
#X connect 37 0 47 0;
#X connect 38 0 47 0;
#X connect 39 0 47 0;
#X connect 40 0 47 0;
#X connect 41 0 47 0;
#X connect 42 0 47 0;
#X connect 43 0 47 0;
#X connect 44 0 47 0;
#X connect 45 0 33 0;
#X connect 45 1 34 0;
#X connect 45 2 35 0;
#X connect 45 3 36 0;
#X connect 45 4 37 0;
#X connect 45 5 38 0;
#X connect 45 6 39 0;
#X connect 45 7 40 0;
#X connect 45 8 41 0;
#X connect 45 9 42 0;
#X connect 45 10 43 0;
#X connect 45 11 44 0;
#X connect 46 0 45 0;
#X connect 51 0 53 0;
#X connect 51 1 55 0;
#X connect 52 0 51 0;
#X connect 53 0 54 0;
#X connect 53 0 46 0;
#X connect 55 0 58 0;
#X connect 58 0 59 0;
#X connect 59 0 56 0;
