#N canvas 748 31 940 797 10;
#X obj 95 9 inlet h;
#X obj 234 14 inlet s;
#X obj 309 41 inlet v;
#X obj 235 79 select 0;
#X obj 491 630 outlet R;
#X obj 586 630 outlet G;
#X obj 684 632 outlet B;
#X obj 235 129 f;
#X obj 235 153 * 255;
#X obj 96 86 * 6;
#X floatatom 96 141 5 0 0 0 - - -, f 5;
#X obj 37 -12 hsl 128 15 0 1 0 0 empty empty empty -2 -8 0 10 -262144
-1 -1 6800 1;
#X text 532 -6 from: http://www.easyrgb.com/index.php?X=MATH&H=21#text21
if ( S == 0 ) //HSV from 0 to 1 R = V * 255 G = V * 255 B = V * 255
else var_h = H * 6 if ( var_h == 6 ) var_h = 0 //H must be < 1 var_i
= int( var_h ) //Or ... var_i = floor( var_h ) var_1 = V * ( 1 - S
) var_2 = V * ( 1 - S * ( var_h - var_i ) ) var_3 = V * ( 1 - S * (
1 - ( var_h - var_i ) ) ) if ( var_i == 0 ) var_r = V \; var_g = var_3
\; var_b = var_1 else if ( var_i == 1 ) var_r = var_2 \; var_g = V
\; var_b = var_1 else if ( var_i == 2 ) var_r = var_1 \; var_g = V
\; var_b = var_3 else if ( var_i == 3 ) var_r = var_1 \; var_g = var_2
\; var_b = V else if ( var_i == 4 ) var_r = var_3 \; var_g = var_1
\; var_b = V else var_r = V \; var_g = var_1 \; var_b = var_2 R = var_r
* 255 //RGB results from 0 to 255 G = var_g * 255 B = var_b * 255;
#X text 129 141 var_i;
#X text 68 162 var_h;
#X floatatom 31 163 5 0 0 0 - - -, f 5;
#X msg 31 136 0;
#X text 204 283 var_1;
#X obj 167 221 -;
#X msg 167 190 1;
#X obj 167 166 t b f;
#X floatatom 167 283 5 0 0 0 - - -, f 5;
#X obj 167 251 *;
#X obj 40 245 -;
#X floatatom 40 349 5 0 0 0 - - -, f 5;
#X obj 40 268 *;
#X obj 349 98 f;
#X obj 299 13 hsl 128 15 0 1 0 0 empty empty empty -2 -8 0 10 -262144
-1 -1 8000 1;
#X obj 96 114 mod 6;
#X obj 31 114 select 6;
#X text 78 350 var_2;
#X obj 40 311 *;
#X obj 235 59 f;
#X obj 195 -6 hsl 128 15 0 1 0 0 empty empty empty -2 -8 0 10 -262144
-1 -1 5100 1;
#X obj 278 503 select 0 1 2 3 4;
#X obj 4 459 -;
#X msg 4 431 1;
#X obj 4 406 t b f;
#X floatatom 26 570 5 0 0 0 - - -, f 5;
#X obj 26 489 *;
#X obj 26 532 *;
#X text 64 571 var_3;
#X obj 54 674 pack f f f;
#X obj 28 601 f;
#X obj 27 374 f;
#X obj 150 307 f;
#X obj 137 593 t b b b;
#X obj 245 527 bng 15 250 50 0 empty empty empty 17 7 0 10 -262144
-1 -1;
#X obj 96 62 f;
#X obj 310 74 t b b f;
#X obj 349 214 pack f f f;
#X obj 95 30 t b b f;
#X obj 234 35 t b b f;
#X text 131 673 var_1 \, var_2 \, var_3;
#X obj 441 327 print;
#X obj 437 250 bng 15 250 50 0 empty empty empty 17 7 0 10 -262144
-1 -1;
#X obj 422 285 list;
#X connect 0 0 51 0;
#X connect 1 0 52 0;
#X connect 2 0 49 0;
#X connect 3 0 7 0;
#X connect 3 1 20 0;
#X connect 7 0 8 0;
#X connect 8 0 4 0;
#X connect 8 0 5 0;
#X connect 8 0 6 0;
#X connect 9 0 28 0;
#X connect 9 0 29 0;
#X connect 10 0 23 1;
#X connect 10 0 34 0;
#X connect 11 0 48 0;
#X connect 15 0 23 0;
#X connect 16 0 15 0;
#X connect 18 0 22 0;
#X connect 18 0 25 1;
#X connect 18 0 39 1;
#X connect 19 0 18 0;
#X connect 20 0 19 0;
#X connect 20 1 18 1;
#X connect 21 0 45 1;
#X connect 21 0 47 0;
#X connect 22 0 21 0;
#X connect 23 0 25 0;
#X connect 23 0 37 0;
#X connect 24 0 44 1;
#X connect 24 0 47 0;
#X connect 25 0 31 0;
#X connect 26 0 22 1;
#X connect 26 0 7 1;
#X connect 26 0 31 1;
#X connect 26 0 40 1;
#X connect 26 0 50 0;
#X connect 27 0 49 0;
#X connect 28 0 10 0;
#X connect 29 0 16 0;
#X connect 29 1 15 0;
#X connect 31 0 24 0;
#X connect 32 0 3 0;
#X connect 33 0 32 0;
#X connect 35 0 39 0;
#X connect 36 0 35 0;
#X connect 37 0 36 0;
#X connect 37 1 35 1;
#X connect 38 0 43 1;
#X connect 38 0 47 0;
#X connect 39 0 40 0;
#X connect 40 0 38 0;
#X connect 43 0 42 0;
#X connect 43 0 50 1;
#X connect 44 0 42 1;
#X connect 45 0 42 2;
#X connect 45 0 50 2;
#X connect 46 0 43 0;
#X connect 46 1 44 0;
#X connect 46 2 45 0;
#X connect 47 0 46 0;
#X connect 47 0 50 0;
#X connect 48 0 9 0;
#X connect 49 0 48 0;
#X connect 49 1 32 0;
#X connect 49 2 26 0;
#X connect 50 0 56 0;
#X connect 51 0 26 0;
#X connect 51 1 32 0;
#X connect 51 2 48 0;
#X connect 52 0 48 0;
#X connect 52 1 26 0;
#X connect 52 2 32 0;
#X connect 56 0 54 0;
